<svg xmlns="http://www.w3.org/2000/svg" width="100" height="250" viewBox="0 0 100 250"><rect width="100%" height="100%" fill="#000000"/><path fill="#FFFFFF" d="M19.67 117.9h1.21q.44 0 .77-.11.33-.12.55-.32.22-.21.33-.51.11-.29.11-.66 0-.35-.11-.63t-.32-.48q-.22-.2-.55-.3-.33-.11-.78-.11h-1.21v3.12Zm-1.61-4.37h2.82q.87 0 1.51.21.63.2 1.05.57.41.36.61.87t.2 1.12q0 .63-.21 1.16-.21.52-.63.9-.42.38-1.05.59-.63.21-1.48.21h-1.21v3.05h-1.61v-8.68Zm8.5 2.9.09.69q.29-.55.69-.87.39-.31.93-.31.43 0 .69.19l-.1 1.11q-.03.1-.09.15-.05.04-.15.04-.09 0-.27-.03-.17-.03-.34-.03-.25 0-.44.08-.19.07-.34.2-.16.14-.27.33-.12.19-.22.44v3.79h-1.49v-6.16h.87q.23 0 .32.08.09.09.12.3Zm4.34 1.99h2.8q0-.28-.08-.54-.09-.25-.25-.45-.16-.19-.41-.3-.25-.11-.58-.11-.64 0-1.01.37-.37.36-.47 1.03Zm3.78.9h-3.81q.04.47.17.82.13.34.35.57.21.22.51.33.3.11.66.11.36 0 .62-.08t.45-.19q.2-.1.35-.18.14-.09.28-.09.19 0 .28.14l.42.54q-.24.29-.55.49-.31.19-.64.31-.33.11-.68.16-.34.05-.67.05-.64 0-1.19-.21-.55-.22-.96-.63-.41-.42-.64-1.04-.24-.61-.24-1.42 0-.63.21-1.19.2-.55.58-.96.38-.41.93-.65.55-.24 1.24-.24.58 0 1.08.18.49.19.84.55.36.35.56.87.2.52.2 1.19 0 .33-.07.45-.08.12-.28.12Zm3.51 2.99q-.8 0-1.23-.46-.43-.45-.43-1.25v-3.44h-.63q-.12 0-.21-.07-.08-.08-.08-.24v-.59l.99-.16.31-1.68q.03-.12.12-.18.08-.07.21-.07h.77v1.94h1.64v1.05h-1.64v3.34q0 .29.14.45.14.16.39.16.14 0 .23-.03t.16-.07l.12-.07q.06-.03.11-.03.07 0 .11.03.04.03.09.1l.44.72q-.32.27-.74.41-.42.14-.87.14Zm3.58-3.89h2.8q0-.28-.08-.54-.08-.25-.25-.45-.16-.19-.41-.3-.25-.11-.58-.11-.64 0-1.01.37-.37.36-.47 1.03Zm3.78.9h-3.81q.04.47.17.82.13.34.35.57.21.22.51.33.3.11.66.11.36 0 .62-.08t.46-.19l.34-.18q.14-.09.28-.09.19 0 .28.14l.42.54q-.24.29-.55.49-.3.19-.64.31-.33.11-.67.16-.35.05-.67.05-.65 0-1.2-.21-.55-.22-.96-.63-.41-.42-.64-1.04-.23-.61-.23-1.42 0-.63.2-1.19.2-.55.59-.96.38-.41.93-.65.54-.24 1.23-.24.59 0 1.08.18.49.19.84.55.36.35.56.87.2.52.2 1.19 0 .33-.07.45t-.28.12Zm2.74-3 .11.49q.18-.19.39-.35.21-.15.44-.27.23-.11.49-.17.27-.06.58-.06.5 0 .89.17t.65.48q.26.31.4.74.13.43.13.94v3.92h-1.48v-3.92q0-.56-.26-.87-.25-.31-.78-.31-.39 0-.72.17-.34.18-.64.48v4.45h-1.48v-6.16h.91q.28 0 .37.27Zm9.35 4.07v-2.76q-.25-.31-.55-.44-.29-.12-.64-.12-.33 0-.6.12-.27.13-.46.39-.2.25-.3.64-.1.4-.1.93 0 .54.09.91.08.38.25.62.16.23.39.34.24.1.52.1.47 0 .79-.19.32-.19.61-.54Zm0-7.1h1.48v8.92h-.9q-.3 0-.37-.27l-.13-.59q-.37.42-.85.69-.49.26-1.13.26-.5 0-.92-.21-.42-.21-.73-.61-.3-.4-.46-.99-.17-.58-.17-1.34 0-.68.19-1.27.18-.59.53-1.02.35-.43.83-.68.49-.24 1.1-.24.51 0 .88.16.36.16.65.44v-3.25Zm7.92 9.02q-.81 0-1.24-.46-.43-.45-.43-1.25v-3.44h-.63q-.12 0-.2-.07-.08-.08-.08-.24v-.59l.99-.16.31-1.68q.03-.12.11-.18.09-.07.22-.07h.77v1.94h1.64v1.05h-1.64v3.34q0 .29.14.45.14.16.38.16.14 0 .24-.03.09-.03.16-.07l.12-.07q.05-.03.11-.03t.11.03q.04.03.09.1l.44.72q-.32.27-.74.41-.42.14-.87.14Zm3.89-9.02v3.42q.36-.33.79-.54.43-.21 1.02-.21.5 0 .89.17t.65.48q.26.31.4.74.13.43.13.94v3.92h-1.48v-3.92q0-.56-.26-.87-.26-.31-.78-.31-.39 0-.72.17-.34.18-.64.48v4.45h-1.48v-8.92h1.48Zm5.33 2.76h1.49v6.16h-1.49v-6.16Zm1.7-1.79q0 .19-.08.36-.08.17-.21.29-.13.13-.3.21-.18.07-.37.07-.2 0-.37-.07-.17-.08-.29-.21-.13-.12-.2-.29-.08-.17-.08-.36 0-.2.08-.37.07-.18.2-.3.12-.13.29-.2.17-.08.37-.08.19 0 .37.08.17.07.3.2.13.12.21.3.08.17.08.37Zm5.4 2.46-.34.53q-.06.1-.13.14-.06.04-.16.04-.11 0-.23-.06-.13-.06-.29-.14-.16-.07-.37-.13t-.49-.06q-.44 0-.68.18-.25.19-.25.49 0 .2.13.33.12.14.34.24.21.1.48.18.27.08.55.18.28.1.55.22t.48.31q.21.19.34.45.13.27.13.64 0 .44-.16.82-.16.37-.47.65-.31.27-.77.42-.46.16-1.06.16-.32 0-.62-.06t-.58-.16q-.28-.1-.52-.24-.23-.14-.41-.3l.34-.56q.06-.11.15-.16t.23-.05q.14 0 .26.07.13.08.29.17.16.09.38.17.22.08.55.08.27 0 .46-.07.19-.06.31-.16t.18-.24q.06-.13.06-.28 0-.21-.13-.35-.13-.14-.34-.24-.22-.1-.49-.18-.27-.08-.56-.18-.28-.1-.56-.23-.27-.12-.48-.32-.22-.2-.34-.49-.13-.29-.13-.69 0-.38.15-.72.15-.35.44-.6.29-.26.72-.41.44-.15 1.01-.15.63 0 1.16.21.52.21.87.55Zm-51.35 13.73h1.49v6.16h-1.49v-6.16Zm1.7-1.79q0 .19-.08.36-.08.17-.21.29-.13.13-.3.21-.18.07-.37.07-.2 0-.37-.07-.17-.08-.29-.21-.13-.12-.21-.29-.07-.17-.07-.36 0-.2.07-.37.08-.18.21-.3.12-.13.29-.2.17-.08.37-.08.19 0 .37.08.17.07.3.2.13.12.21.3.08.17.08.37Zm5.4 2.46-.34.53q-.06.1-.13.14-.06.04-.16.04-.11 0-.24-.06l-.28-.14q-.16-.07-.37-.13t-.49-.06q-.44 0-.69.18-.24.19-.24.49 0 .2.12.33.13.14.35.24.21.1.48.18.27.08.55.18.28.1.55.22t.48.31q.21.19.34.45.13.27.13.64 0 .44-.16.82-.16.37-.47.65-.31.27-.77.42-.46.16-1.06.16-.32 0-.62-.06t-.58-.16q-.28-.1-.52-.24-.23-.14-.41-.3l.34-.56q.06-.11.15-.16t.23-.05q.14 0 .26.07.13.08.29.17.16.09.38.17.22.08.55.08.27 0 .46-.07.19-.06.31-.16t.18-.24q.06-.13.06-.28 0-.21-.13-.35-.13-.14-.35-.24-.21-.1-.48-.18-.27-.08-.56-.18-.28-.1-.56-.22-.27-.13-.48-.33-.22-.2-.34-.49-.13-.29-.13-.69 0-.38.15-.72.15-.35.44-.6.29-.26.72-.41.44-.15 1.01-.15.63 0 1.16.21.52.21.87.55Zm7.35 3.9v-1.04q-.65.03-1.08.11-.44.08-.71.21-.26.13-.37.29-.12.17-.12.37 0 .39.23.56.23.17.61.17.45 0 .79-.17.33-.16.65-.5Zm-3.14-3.23-.26-.48q1.06-.97 2.56-.97.54 0 .96.18.43.17.72.49.3.31.45.75.15.44.15.96v3.89h-.67q-.21 0-.32-.06-.12-.07-.18-.26l-.14-.44q-.23.21-.45.37t-.46.26q-.24.11-.52.17-.27.06-.6.06-.39 0-.72-.11-.33-.1-.57-.31-.24-.21-.37-.53-.13-.31-.13-.72 0-.24.07-.47.08-.23.26-.44t.46-.39q.28-.19.69-.33.41-.14.96-.22.54-.09 1.25-.11v-.36q0-.62-.27-.91-.26-.3-.76-.3-.36 0-.6.08-.23.09-.41.19-.18.11-.33.19-.15.09-.33.09-.15 0-.26-.08-.11-.09-.18-.19Zm7.26-1.07.1.49q.19-.19.39-.34.21-.16.44-.28.23-.11.5-.17.26-.06.57-.06.51 0 .9.17t.65.48q.26.31.39.74.14.43.14.94v3.92H51.7v-3.92q0-.56-.26-.87-.26-.31-.79-.31-.38 0-.72.17-.33.18-.63.48v4.45h-1.49v-6.16h.91q.29 0 .38.27Zm11.65 4.3v-1.04q-.64.03-1.08.11-.44.08-.7.21-.27.13-.38.29-.11.17-.11.37 0 .39.23.56.23.17.6.17.46 0 .79-.17.33-.16.65-.5Zm-3.13-3.23-.27-.48q1.07-.97 2.56-.97.54 0 .97.18.42.17.72.49.29.31.44.75.16.44.16.96v3.89h-.68q-.21 0-.32-.06-.11-.07-.18-.26l-.13-.44q-.24.21-.46.37-.22.16-.46.26-.24.11-.51.17-.28.06-.61.06-.39 0-.72-.11-.33-.1-.57-.31-.24-.21-.37-.53-.13-.31-.13-.72 0-.24.08-.47.08-.23.25-.44.18-.21.46-.39.28-.19.69-.33.42-.14.96-.22.55-.09 1.25-.11v-.36q0-.62-.26-.91-.27-.3-.77-.3-.36 0-.59.08-.24.09-.42.19-.18.11-.33.19-.14.09-.32.09-.16 0-.27-.08-.11-.09-.17-.19Zm9.83 3v-2.76q-.25-.31-.55-.44-.29-.12-.64-.12-.33 0-.6.12-.27.13-.46.39-.2.25-.3.64-.1.4-.1.93 0 .54.09.92.08.37.25.61.16.23.39.34.24.1.52.1.47 0 .79-.19.32-.19.61-.54Zm0-7.1h1.48v8.92h-.9q-.3 0-.37-.27l-.13-.59q-.37.42-.86.69-.48.26-1.12.26-.5 0-.92-.21-.42-.21-.73-.61-.3-.4-.47-.99-.16-.58-.16-1.34 0-.68.19-1.27.18-.59.53-1.02.35-.43.83-.68.49-.24 1.1-.24.51 0 .88.16.36.16.65.44v-3.25Z"/></svg>